<mxfile host="app.diagrams.net" agent="Mozilla/5.0 (Windows NT 10.0; Win64; x64) AppleWebKit/537.36 (KHTML, like Gecko) Chrome/127.0.0.0 Safari/537.36" version="24.7.7">
  <diagram name="第 1 页" id="_-mdbE1ngt6PlIPa-gjI">
    <mxGraphModel dx="2901" dy="1132" grid="1" gridSize="10" guides="1" tooltips="1" connect="1" arrows="1" fold="1" page="1" pageScale="1" pageWidth="827" pageHeight="1169" math="0" shadow="0">
      <root>
        <mxCell id="0" />
        <mxCell id="1" parent="0" />
        <mxCell id="vn0OSaNbWMJ0jMEmTQWo-1" value="meml pool" style="swimlane;whiteSpace=wrap;html=1;startSize=23;" vertex="1" parent="1">
          <mxGeometry x="-440" y="210" width="220" height="540" as="geometry" />
        </mxCell>
        <mxCell id="vn0OSaNbWMJ0jMEmTQWo-2" value="mev searcher" style="swimlane;whiteSpace=wrap;html=1;" vertex="1" parent="1">
          <mxGeometry x="-220" y="210" width="190" height="540" as="geometry" />
        </mxCell>
        <mxCell id="vn0OSaNbWMJ0jMEmTQWo-3" value="falshbots rpc" style="swimlane;whiteSpace=wrap;html=1;" vertex="1" parent="1">
          <mxGeometry x="-30" y="210" width="220" height="540" as="geometry" />
        </mxCell>
        <mxCell id="vn0OSaNbWMJ0jMEmTQWo-4" value="block builders" style="swimlane;whiteSpace=wrap;html=1;startSize=23;" vertex="1" parent="1">
          <mxGeometry x="190" y="210" width="250" height="540" as="geometry" />
        </mxCell>
        <mxCell id="vn0OSaNbWMJ0jMEmTQWo-7" value="mev-boost relay" style="swimlane;whiteSpace=wrap;html=1;startSize=23;" vertex="1" parent="1">
          <mxGeometry x="440" y="210" width="250" height="540" as="geometry" />
        </mxCell>
        <mxCell id="vn0OSaNbWMJ0jMEmTQWo-8" value="mev-boost" style="swimlane;whiteSpace=wrap;html=1;startSize=23;" vertex="1" parent="1">
          <mxGeometry x="690" y="210" width="250" height="540" as="geometry" />
        </mxCell>
        <mxCell id="vn0OSaNbWMJ0jMEmTQWo-9" value="block proposers" style="swimlane;whiteSpace=wrap;html=1;startSize=23;" vertex="1" parent="1">
          <mxGeometry x="940" y="210" width="250" height="540" as="geometry" />
        </mxCell>
      </root>
    </mxGraphModel>
  </diagram>
</mxfile>
